<?xml version="1.0" standalone="no"?><!DOCTYPE svg PUBLIC "-//W3C//DTD SVG 1.1//EN" "http://www.w3.org/Graphics/SVG/1.1/DTD/svg11.dtd"><svg t="1508270628083" class="icon" style="" viewBox="0 0 1024 1024" version="1.1" xmlns="http://www.w3.org/2000/svg" p-id="3794" xmlns:xlink="http://www.w3.org/1999/xlink" width="200" height="200"><defs><style type="text/css"></style></defs><path d="M841.455477 151.771659c10.952446 0 18.284435 5.696746 21.680789 9.092075s9.092076 10.727319 9.092075 21.680789v658.910954c0 10.952446-5.696746 18.285458-9.092075 21.680789s-10.727319 9.092076-21.680789 9.092075H182.544523c-10.95347 0-18.284435-5.696746-21.680789-9.092075s-9.092076-10.727319-9.092075-21.680789V182.544523c0-10.95347 5.696746-18.285458 9.092075-21.680789s10.727319-9.092076 21.680789-9.092075h658.910954m0-61.398372H182.544523c-50.694589 0-92.171236 41.476647-92.171236 92.171236v658.910954c0 50.693566 41.476647 92.171236 92.171236 92.171236h658.910954c50.693566 0 92.171236-41.476647 92.171236-92.171236V182.544523c0-50.694589-41.47767-92.171236-92.171236-92.171236z" fill="#F05B3D" p-id="3795"></path><path d="M571.534931 915.046542c-0.441045-0.310062-10.56973-18.312064-10.833742-18.828834-14.743796-28.800953-25.482371-35.827997-47.409777-59.259662-6.724145-7.185656-6.749728-15.343453-0.225127-21.971407 12.749372-12.950963 13.069667-20.72809 1.664919-34.767851-14.623046-18.002003-29.424146-35.870975-43.576471-54.238299-4.885264-6.338359-7.324826-14.556531-12.186553-20.918425-7.123234-9.320273-15.838733-17.415648-23.067369-26.665313-4.653997-5.955642-8.338922-5.542226-13.887288-1.597381-2.628874 1.868557-7.206122 3.056616-9.958816 2.029216-2.142803-0.799202-4.125971-5.586229-3.942799-8.457626 0.877997-13.721513 2.537799-27.39186 3.881401-41.08472 0.591471-6.030343 3.999081-8.629541 9.751084-10.428514 3.919263-1.225921 8.870018-4.726651 10.022261-8.289803 5.861498-18.126846 10.94426-36.499285 8.295944-56.038294-1.319042-9.733689 1.759063-12.743232 11.40884-13.155625 12.341073-0.527003 24.827455-0.146333 36.979216-1.970887 15.277962-2.293229 31.985482-0.854461 44.296879-13.569041 1.095961-1.131777 4.246721-0.608867 6.380314-0.344854 14.326287 1.77339 26.76969-0.87288 35.540448-13.722536 8.582469-12.574387 17.362436-25.021883 26.394137-37.275975 1.794879-2.435469 4.991688-5.068436 7.770987-5.348821 18.492166-1.863441 33.67496-9.217942 44.779879-24.495904 1.326205-1.824555 3.990894-2.674922 6.03546-3.977591 0.86981 2.035356 1.928932 4.01136 2.579755 6.114254 6.471388 20.911262 11.908214 42.207287 19.605524 62.653969 6.161327 16.365736 15.764032 31.190373 29.708625 42.872436l16.006556-13.18837c-0.786922-1.39886-1.230014-2.517333-1.948375-3.415796-21.728884-27.170826-35.376719-57.82908-39.730887-92.439342-0.421602-3.353374-1.006933-7.964392 0.766457-10.0591 4.077875-4.814656 9.562796-8.438183 14.518668-12.579503 3.806699 0.939395 8.961092 3.923356 13.168927 2.924609 12.119015-2.876514 24.070208-6.831592 35.630499-11.494798 4.181229-1.686409 6.525624-7.632841 10.66899-9.771551 6.310729-3.257184 9.135054-7.384178 7.126305-14.09809l79.865979-7.222495v-9.289574l-25.346272-3.25616c0.156566-1.346671 0.589424-3.062755 0.51677-4.757351-0.472767-11.146874-0.785899-22.316262-1.865487-33.407877-0.181125-1.859347-3.840468-3.378957-5.893221-5.056156-1.556449 2.081405-4.200672 4.036943-4.456498 6.267751-0.644683 5.619998-0.213871 11.364839-0.213871 17.116842-13.675464-1.715061-26.381857-3.198855-39.038108-5.025456-1.692548-0.24457-3.876284-1.896186-4.562923-3.455705-2.820232-6.405897-9.367345-7.414877-14.369265-2.532683-2.263553 2.209318-6.003737 4.402263-8.919137 4.213975-28.990265-1.873674-57.958016-4.121877-86.910419-6.534834-13.68672-1.140986-27.294646-3.412726-40.993646-4.173042-13.241582-0.734734-26.556842-0.073678-39.834241-0.346901-1.6465-0.033769-3.25309-2.038426-4.7727-3.059686l3.430123-8.123004c-12.199856-10.292414-23.508413-7.102768-29.756721 7.432273-8.638751-0.397043-17.10661-1.459235-25.459858-0.875951-3.930519 0.274246-9.438976 2.746554-11.123339 5.889128-5.774517 10.773368-13.594623 15.820314-25.808805 13.397124-1.133823-0.225127-2.362814-0.146333-3.52529-0.014326-7.755638 0.87595-9.283434-4.045129-8.193613-9.860578 1.118474-5.972015 3.131317-11.857049 5.417383-17.510816 3.705392-9.165754 11.663644-18.270109 11.287067-27.121708-1.208525-28.409027-10.137895-54.650691-32.106232-74.625627-24.723078-22.478967-53.449329-20.083407-82.028225-11.182691-26.670429 8.306176-42.726104 27.225061-48.445362 55.163368-4.25593 20.791535-4.628414 41.287335 0.067539 60.451813-8.084119 1.848091-17.042141 1.187035-21.325702 5.343705-18.497283 17.949814-37.228903 36.090986-52.77804 56.519248-14.077623 18.495236-25.074072 38.281885-24.056905 64.774259 1.078565 28.090778-4.278443 56.818053-9.810437 84.675518-7.235798 36.440957-17.184381 72.356958-26.514887 108.355847-1.590218 6.134721 0.402159 8.763594 4.652973 12.183484 2.654456 2.13564 6.192026 7.269567 5.303796 9.080819-9.529027 19.428491-0.711198 38.620599 0.696872 57.662281 0.730641 9.877975 3.263323 18.544355-3.442402 27.553543-3.697205 4.967128-5.291516 11.704576-7.05979 17.865902-6.03239 21.021779-11.69332 42.148959-17.569144 63.215764-1.020236 3.656273-2.785439 7.133468-3.546779 10.82965-3.651157 17.72878-11.028171 53.107545-11.028171 53.107545l137.583519 16.615423s12.094456-49.136094 32.616861-97.355306c2.314719-5.438872 5.668093-6.4192 10.064217-3.399423 6.255471 4.296863 12.774955 8.500605 18.080797 13.83817 22.372543 22.505573 43.055608 46.283116 59.223846 73.961502 14.080693 24.106024-1.795902 7.361665 18.945491 25.659403l136.787386-6.127558z m84.104513-515.920286c-2.617617 0.281409-5.2864 0.057305-7.926529 0.174986-13.042037 0.580215-25.241894 2.016937-33.794688 14.413268-8.630564 12.507872-18.951631 11.641131-33.645284 4.732791-10.339486-4.860704-10.260691-14.742772-0.727571-21.040199 10.945283-7.229658 21.217231-15.665795 32.749892-21.736047 5.661953-2.979868 14.810311-4.502547 20.111037-1.957585 12.151761 5.835915 24.660656 4.074805 36.995589 5.551436 1.698688 0.203638 3.442402 0.027629 5.832845 0.02763-1.156336 11.333116-8.685823 18.658965-19.595291 19.83372z" fill="#F05B3D" p-id="3796"></path></svg>