<svg xmlns="http://www.w3.org/2000/svg" viewBox="0 0 640 440" enable-background="new 0 0 640 440"><path fill="#0073cf" d="m0 0h640v440h-640z"/><path d="m352.6 147.6c0 18-14.6 32.6-32.6 32.6s-32.6-14.6-32.6-32.6 14.6-32.6 32.6-32.6 32.6 14.6 32.6 32.6" fill="#fecb00"/><path d="m267.3 26.3c-55 1-111.6 133.2 20.5 200.2v187.2h16.8v-191.2c-14-4.6-61.8-35.5-61.8-75.9 0-16.9 10.6-44.8 30.7-57.7 12.3-7.9 24.5-16 24.5-32.6s-13.5-30.1-30.1-30.1c-.2.1-.4.1-.6.1m103.8 0c-16.2.5-29.1 13.8-29.1 30.1 0 16.6 12.1 24.7 24.5 32.6 20.2 12.9 30.7 40.8 30.7 57.7 0 40.4-47.8 71.3-61.8 75.9v191.2h16.8v-187.3c132.7-67.3 75.1-200.2 19.9-200.2-.4 0-.7 0-1 0m-191.3 47c-14.7.6-24.7 11.4-24.7 28.2 0 31.2 54.1 113.2 109.6 133.8v178.4h16.8v-186c-30.5-17-55.5-39-67.5-64.6-11.3-24.2-11.5-41.3-11.5-50.2 0-12.1 1.1-11.1 1.1-18.7 0-19.3-16.7-20.9-23.4-20.9-.1 0-.2 0-.4 0m278.8 0c-7.3.2-22.3 2.7-22.3 20.9 0 7.6 1.1 6.7 1.1 18.7 0 8.9-.2 26-11.5 50.2-11.9 25.6-37 47.6-67.5 64.6v186h16.8v-178.4c55.5-20.5 109.6-102.6 109.6-133.8 0-16.9-10.2-27.7-25.1-28.2-.3 0-.6 0-1.1 0m-316.7 47.3c-8.1.4-15.6 6.5-15.6 17.9 0 3.7-.3 8.9 9.8 21.4 28.6 35.3 91.5 78.6 105.5 81.7v172.2h16.8v-177.3c-32.4-14.3-79-60-99.3-105-3.4-7.6-10.5-11.2-17.2-10.9m354.5 0c-6.2.3-12.4 3.9-15.5 10.9-20.4 45.1-67 90.7-99.3 105v177.2h16.8v-172.2c14-3.1 76.9-46.3 105.5-81.7 10.1-12.4 9.8-17.7 9.8-21.4 0-12.1-8.6-18.2-17.3-17.8m-374.7 38.8c-8 .6-13.6 9.1-13.6 14.2 0 18.1 83.2 72.9 107.8 75.5v164.7h19.5v-171c-19.1-8.4-80.4-52.7-98.4-74.8-5.5-6.7-10.8-8.9-15.3-8.6m394.9 0c-4.1.3-8.8 2.7-13.6 8.6-18 22.1-79.3 66.4-98.4 74.8v170.9h19.5v-164.6c24.6-2.6 107.8-57.3 107.8-75.5 0-5.5-6.4-14.8-15.3-14.2m-205.7 63.7v190.6h9.1 9.1v-190.6h-9.1-9.1" fill="#fff"/></svg>