<svg xmlns="http://www.w3.org/2000/svg" viewBox="0 0 640 440" enable-background="new 0 0 640 440"><path d="M0-0.1h640v440H0V-0.1z" fill="#cc0001"/><g fill="#fff"><path d="M0,408.6h640V440H0V408.6z"/><path d="M0,345.7h640v31.4H0V345.7z"/><path d="M0,282.8h640v31.4H0V282.8z"/><path d="M0,220h640v31.4H0V220z"/><path d="M0,157.1h640v31.4H0V157.1z"/><path d="M0,94.2h640v31.4H0V94.2z"/><path d="M0,31.4h640v31.4H0V31.4z"/></g><path d="M0-0.1h372.7v251.5H0V-0.1z" fill="#010066"/><g fill="#fc0"><path d="m149.7 44.5c-49.1 0-88.9 36.4-88.9 81.2s39.8 81.2 88.9 81.2c17.7 0 34.2-4.8 48.1-12.9-8.3 2.6-17 4-25.8 4-43.5 0-78.8-32.3-78.8-72 0-39.7 35.3-72 78.8-72 9.6 0 18.8 1.6 27.3 4.5-14.1-8.9-31.2-14-49.6-14"/><path d="m297.1 167.9l-37.4-17.9 11.1 36.6-25-30.7-7.8 37.3-7.7-37.3-25.1 30.6 11.2-36.6-37.5 17.8 27.9-28.6-42.4 1.5 39-15-39-15.1 42.4 1.6-27.8-28.7 37.4 17.9-11.1-36.6 25 30.7 7.8-37.3 7.7 37.3 25.2-30.6-11.2 36.6 37.5-17.8-27.9 28.6 42.4-1.5-39 15 39 15.1-42.4-1.6 27.7 28.7"/></g></svg>