<svg xmlns="http://www.w3.org/2000/svg" viewBox="0 0 640 440" enable-background="new 0 0 640 440"><path d="M0,0h640v440H0V0z" fill="#ee1c25"/><path d="M0,0h640v293.3H0V0z" fill="#0b4ea2"/><g fill="#fff"><path d="M0,0h640v146.7H0V0z"/><path d="m233 350.8c-43-20.7-104.6-61.9-104.6-143.2 0-81.4 3.9-118.4 3.9-118.4h201.4c0 0 3.9 37 3.9 118.4 0 81.3-61.6 122.5-104.6 143.2"/></g><path d="m233 340c-39.5-19-95.9-56.8-95.9-131.4 0-74.7 3.6-108.6 3.6-108.6h184.7c0 0 3.6 34 3.6 108.6s-56.5 112.4-96 131.4" fill="#ee1c25"/><path d="m241.4 189c10.7.2 31.5.6 50.1-5.6 0 0-.5 6.6-.5 14.4 0 7.7.5 14.4.5 14.4-17-5.7-38.1-5.8-50.1-5.7v41.2h-16.9v-41.2c-12-.2-33.1 0-50.1 5.7 0 0 .5-6.6.5-14.4 0-7.7-.5-14.4-.5-14.4 18.6 6.2 39.4 5.8 50.1 5.6v-25.9c-9.7-.1-23.8.4-39.6 5.7 0 0 .5-6.6.5-14.4 0-7.7-.5-14.4-.5-14.4 15.8 5.3 29.9 5.8 39.6 5.7-.5-16.4-5.3-37.1-5.3-37.1s9.8.8 13.8.8c3.9 0 13.8-.8 13.8-.8s-4.8 20.7-5.3 37.1c9.7.1 23.8-.4 39.6-5.7 0 0-.5 6.6-.5 14.4 0 7.7.5 14.4.5 14.4-15.9-5.3-29.9-5.8-39.6-5.7l-.1 25.9" fill="#fff"/><path d="m233 243.3c-19.9 0-30.5 27.6-30.5 27.6s-5.9-13.1-22.1-13.1c-11 0-19.1 9.8-24.2 18.8 20 31.8 51.8 51.4 76.8 63.4 25-12.1 56.9-31.7 76.9-63.4-5.1-9-13.2-18.8-24.2-18.8-16.2 0-22.1 13.1-22.1 13.1s-10.7-27.6-30.6-27.6" fill="#0b4ea2"/></svg>