<svg xmlns="http://www.w3.org/2000/svg" viewBox="0 0 640 440" enable-background="new 0 0 640 440"><path d="M0,0h640v440H0V0z" fill="#f31930"/><path d="m407 227.5c0 66.2-54.6 119.9-122 119.9s-122-53.7-122-119.9 54.6-119.9 122-119.9 122 53.7 122 119.9" fill="#fff"/><path d="m413.1 227.5c0 53-43.7 95.9-97.6 95.9s-97.6-42.9-97.6-95.9 43.7-95.9 97.6-95.9 97.6 42.9 97.6 95.9" fill="#f31830"/><path d="m430.7 171.5l-1 44.3-41.3 11.2 40.8 14.5-1 40.6 26.6-31.7 40.2 13.9-23.2-34.1 28.4-33.9-43.5 12-26-36.8" fill="#fff"/></svg>