<svg xmlns="http://www.w3.org/2000/svg" xmlns:xlink="http://www.w3.org/1999/xlink" viewBox="0 0 640 440" enable-background="new 0 0 640 440"><defs><path id="1" d="m-.2 0h641.7v441.3h-641.7z"/><clipPath id="0"><use xlink:href="#1"/></clipPath></defs><path d="M-160.6-20h962.6v481.3h-962.6V-20z" fill="#006" clip-path="url(#0)"/><g fill="#fff"><path d="M-160.6-20v53.8l855,427.5h107.6v-53.8L-53-20H-160.6z M801.9-20v53.8L-53,461.3h-107.6v-53.8L694.3-20H801.9z
		" clip-path="url(#0)"/><path d="m240.4-20v481.3h160.4v-481.3h-160.4m-401 160.4v160.4h962.6v-160.4h-962.6" clip-path="url(#0)"/></g><path d="m-160.6 172.5v96.3h962.6v-96.3h-962.6m433.1-192.5v481.3h96.3v-481.3h-96.3m-433.1 481.3l320.9-160.4h71.7l-320.9 160.4h-71.7m0-481.3l320.9 160.4h-71.8l-249.1-124.5v-35.9m569.9 160.4l320.9-160.4h71.7l-320.8 160.4h-71.8m392.6 320.9l-320.8-160.4h71.7l249.1 124.6v35.8" fill="#c00" clip-path="url(#0)"/></svg>