<svg xmlns="http://www.w3.org/2000/svg" viewBox="0 0 640 440" enable-background="new 0 0 640 440"><path d="M0,0h640v33.8H0V0z M0,67.7h640v33.8H0V67.7z M0,135.4h640v33.8H0V135.4z M0,203.1h640v33.8H0V203.1z M0,270.8
	h640v33.8H0V270.8z M0,338.5h640v33.8H0V338.5z M0,406.2h640V440H0V406.2z" fill="#bd3d44"/><path d="M0,33.8h640v33.8H0V33.8z M0,101.5h640v33.8H0V101.5z M0,169.2h640v33.8H0V169.2z M0,236.9h640v33.8H0V236.9z
	 M0,304.6h640v33.8H0V304.6z M0,372.3h640v33.8H0V372.3z" fill="#fff"/><path d="M0,0h364.8v236.9H0V0z" fill="#192f5d"/><g fill="#fff"><path d="m30.4 10.1l3.3 9.4h10.7l-8.7 5.8 3.3 9.4-8.7-5.8-8.7 5.8 3.3-9.4-8.7-5.8h10.7l3.5-9.4m60.8 0l3.3 9.4h10.7l-8.7 5.8 3.3 9.4-8.7-5.8-8.7 5.8 3.3-9.4-8.7-5.8h10.7l3.5-9.4m60.8 0l3.3 9.4h10.7l-8.7 5.8 3.3 9.4-8.7-5.8-8.7 5.8 3.3-9.4-8.7-5.8h10.7l3.5-9.4m60.8 0l3.3 9.4h10.7l-8.7 5.8 3.3 9.4-8.7-5.8-8.7 5.8 3.3-9.4-8.7-5.8h10.7l3.5-9.4m60.8 0l3.3 9.4h10.7l-8.7 5.8 3.3 9.4-8.7-5.8-8.7 5.8 3.3-9.4-8.7-5.8h10.7l3.5-9.4m60.8 0l3.3 9.4h10.7l-8.7 5.8 3.3 9.4-8.7-5.8-8.7 5.8 3.3-9.4-8.7-5.8h10.7l3.5-9.4m-273.6 23.7l3.3 9.4h10.7l-8.6 5.8 3.3 9.4-8.7-5.8-8.7 5.8 3.3-9.4-8.7-5.8h10.7l3.4-9.4m60.8 0l3.3 9.4h10.7l-8.6 5.8 3.3 9.4-8.7-5.8-8.7 5.8 3.3-9.4-8.7-5.8h10.7l3.4-9.4m60.8 0l3.3 9.4h10.7l-8.7 5.8 3.3 9.4-8.7-5.8-8.7 5.8 3.4-9.4-8.7-5.8h10.7l3.4-9.4m60.8 0l3.3 9.4h10.7l-8.7 5.8 3.3 9.4-8.7-5.8-8.7 5.8 3.3-9.4-8.7-5.8h10.7l3.5-9.4m60.8 0l3.3 9.4h10.7l-8.7 5.8 3.3 9.4-8.7-5.8-8.7 5.8 3.3-9.4-8.7-5.8h10.7l3.5-9.4m-273.6 23.7l3.3 9.4h10.7l-8.7 5.8 3.3 9.4-8.7-5.8-8.6 5.7 3.3-9.4-8.7-5.8h10.7l3.4-9.3m60.8 0l3.3 9.4h10.7l-8.7 5.8 3.3 9.4-8.7-5.8-8.6 5.7 3.3-9.4-8.7-5.8h10.7l3.4-9.3m60.8 0l3.3 9.4h10.7l-8.7 5.8 3.3 9.4-8.7-5.8-8.7 5.8 3.3-9.4-8.7-5.8h10.7l3.5-9.4m60.8 0l3.3 9.4h10.7l-8.7 5.8 3.3 9.4-8.7-5.8-8.7 5.8 3.3-9.4-8.7-5.8h10.7l3.5-9.4m60.8 0l3.3 9.4h10.7l-8.7 5.8 3.3 9.4-8.7-5.8-8.7 5.8 3.3-9.4-8.7-5.8h10.7l3.5-9.4m60.8 0l3.3 9.4h10.7l-8.7 5.8 3.3 9.4-8.7-5.8-8.7 5.8 3.3-9.4-8.7-5.8h10.7l3.5-9.4m-273.6 23.7l3.3 9.4h10.7l-8.7 5.8 3.3 9.4-8.7-5.8-8.7 5.8 3.3-9.4-8.7-5.8h10.7l3.5-9.4m60.8 0l3.3 9.4h10.7l-8.7 5.8 3.3 9.4-8.7-5.8-8.7 5.8 3.3-9.4-8.7-5.8h10.7l3.5-9.4m60.8 0l3.3 9.4h10.7l-8.7 5.8 3.3 9.4-8.7-5.8-8.7 5.8 3.3-9.4-8.7-5.8h10.7l3.5-9.4m60.8 0l3.3 9.4h10.7l-8.7 5.8 3.3 9.4-8.7-5.8-8.7 5.8 3.3-9.4-8.7-5.8h10.7l3.5-9.4m60.8 0l3.3 9.4h10.7l-8.7 5.8 3.3 9.4-8.7-5.8-8.7 5.8 3.3-9.4-8.7-5.8h10.7l3.5-9.4m-273.6 23.7l3.3 9.4h10.7l-8.7 5.8 3.3 9.4-8.7-5.8-8.7 5.8 3.3-9.4-8.7-5.8h10.7l3.5-9.4m60.8 0l3.3 9.4h10.7l-8.7 5.8 3.3 9.4-8.7-5.8-8.7 5.8 3.3-9.4-8.7-5.8h10.7l3.5-9.4m60.8 0l3.3 9.4h10.7l-8.7 5.8 3.3 9.4-8.7-5.8-8.7 5.8 3.3-9.4-8.7-5.8h10.7l3.5-9.4m60.8 0l3.3 9.4h10.7l-8.7 5.8 3.3 9.4-8.7-5.8-8.7 5.8 3.3-9.4-8.7-5.8h10.7l3.5-9.4m60.8 0l3.3 9.4h10.7l-8.7 5.8 3.3 9.4-8.7-5.8-8.7 5.8 3.3-9.4-8.7-5.8h10.7l3.5-9.4m60.8 0l3.3 9.4h10.7l-8.7 5.8 3.3 9.4-8.7-5.8-8.7 5.8 3.3-9.4-8.7-5.8h10.7l3.5-9.4m-273.6 23.7l3.3 9.4h10.7l-8.7 5.8 3.3 9.4-8.7-5.8-8.7 5.8 3.3-9.4-8.7-5.8h10.7l3.5-9.4m60.8 0l3.3 9.4h10.7l-8.7 5.8 3.3 9.4-8.7-5.8-8.7 5.8 3.3-9.4-8.7-5.8h10.7l3.5-9.4m60.8 0l3.3 9.4h10.7l-8.7 5.8 3.3 9.4-8.7-5.8-8.7 5.8 3.3-9.4-8.7-5.8h10.7l3.5-9.4m60.8 0l3.3 9.4h10.7l-8.7 5.8 3.3 9.4-8.7-5.8-8.7 5.8 3.3-9.4-8.7-5.8h10.7l3.5-9.4m60.8 0l3.3 9.4h10.7l-8.7 5.8 3.3 9.4-8.7-5.8-8.7 5.8 3.3-9.4-8.7-5.8h10.7l3.5-9.4"/><path d="m30.4 152.3l3.3 9.4h10.7l-8.7 5.8 3.3 9.4-8.7-5.8-8.7 5.8 3.3-9.4-8.7-5.8h10.7l3.5-9.4m60.8 0l3.3 9.4h10.7l-8.7 5.8 3.3 9.4-8.7-5.8-8.7 5.8 3.3-9.4-8.7-5.8h10.7l3.5-9.4m60.8 0l3.3 9.4h10.7l-8.7 5.8 3.3 9.4-8.6-5.9-8.7 5.8 3.3-9.4-8.7-5.8h10.7l3.4-9.3m60.8 0l3.3 9.4h10.7l-8.7 5.8 3.3 9.4-8.7-5.8-8.7 5.8 3.3-9.4-8.7-5.8h10.7l3.5-9.4m60.8 0l3.3 9.4h10.7l-8.7 5.8 3.3 9.4-8.7-5.8-8.7 5.8 3.3-9.4-8.7-5.8h10.7l3.5-9.4m60.8 0l3.3 9.4h10.7l-8.7 5.8 3.3 9.4-8.7-5.8-8.7 5.8 3.3-9.4-8.7-5.8h10.7l3.5-9.4m-273.6 23.7l3.3 9.4h10.7l-8.7 5.8 3.3 9.4-8.7-5.8-8.7 5.8 3.3-9.4-8.7-5.8h10.7l3.5-9.4m60.8 0l3.3 9.4h10.7l-8.7 5.8 3.3 9.4-8.7-5.8-8.7 5.8 3.3-9.4-8.7-5.8h10.7l3.5-9.4m60.8 0l3.3 9.4h10.7l-8.7 5.8 3.3 9.4-8.7-5.8-8.7 5.8 3.3-9.4-8.7-5.8h10.7l3.5-9.4m60.8 0l3.3 9.4h10.7l-8.7 5.8 3.3 9.4-8.7-5.8-8.7 5.8 3.3-9.4-8.7-5.8h10.7l3.5-9.4m60.8 0l3.3 9.4h10.7l-8.7 5.8 3.3 9.4-8.7-5.8-8.7 5.8 3.3-9.4-8.7-5.8h10.7l3.5-9.4"/><path d="m30.4 199.7l3.3 9.4h10.7l-8.7 5.8 3.3 9.4-8.7-5.8-8.7 5.8 3.3-9.4-8.7-5.8h10.7l3.5-9.4m60.8 0l3.3 9.4h10.7l-8.7 5.8 3.3 9.4-8.7-5.8-8.7 5.8 3.3-9.4-8.7-5.8h10.7l3.5-9.4m60.8 0l3.3 9.4h10.7l-8.7 5.8 3.3 9.4-8.7-5.8-8.7 5.8 3.3-9.4-8.7-5.8h10.7l3.5-9.4m60.8 0l3.3 9.4h10.7l-8.7 5.8 3.3 9.4-8.7-5.8-8.7 5.8 3.3-9.4-8.7-5.8h10.7l3.5-9.4m60.8 0l3.3 9.4h10.7l-8.7 5.8 3.3 9.4-8.7-5.8-8.7 5.8 3.3-9.4-8.7-5.8h10.7l3.5-9.4m60.8 0l3.3 9.4h10.7l-8.7 5.8 3.3 9.4-8.7-5.8-8.7 5.8 3.3-9.4-8.7-5.8h10.7l3.5-9.4"/></g></svg>