<svg xmlns="http://www.w3.org/2000/svg" xmlns:xlink="http://www.w3.org/1999/xlink" viewBox="0 0 640 440" enable-background="new 0 0 640 440"><defs><path id="8" d="m152.9 197.7l234-135.2-67.6-117-234 135.1 67.6 117.1m67.5 117l234.1-135.2-33.8-58.5-234.1 135.2 33.8 58.5"/><path id="9" d="m183.9 80.2h270.3v168.9h-270.3z"/><path id="A" d="m417.5 215.3l-135.2-101.3v202.7z"/><path id="B" d="m417.5 215.3l-135.2-135.1v270.3z"/><path id="C" d="m368.3 300.7l-133.9 38.3-50.7-87.8 204.8-118.3z"/><path id="D" d="m368.3 300.7l-117 67.5-67.6-117 234.1-135.2z"/><path id="E" d="m269.8 300.6l134 38.4 50.7-87.8-204.9-118.3z"/><path id="F" d="m269.8 300.6l117.1 67.6 67.6-117-234.1-135.2z"/><clipPath id="6"><use xlink:href="#E"/></clipPath><clipPath id="5"><use xlink:href="#D"/></clipPath><clipPath id="7"><use xlink:href="#F"/></clipPath><clipPath id="4"><use xlink:href="#C"/></clipPath><clipPath id="3"><use xlink:href="#B"/></clipPath><clipPath id="0"><use xlink:href="#8"/></clipPath><clipPath id="2"><use xlink:href="#A"/></clipPath><clipPath id="1"><use xlink:href="#9"/></clipPath></defs><path fill="#013ba6" d="m0 0h640v440h-640z"/><path d="m417.5 321.7c-58.6 0-106.2-47.7-106.2-106.2s47.7-106.2 106.2-106.2 106.2 47.7 106.2 106.2c.1 58.5-47.5 106.2-106.2 106.2m0-196.9c-50 0-90.6 40.6-90.6 90.6s40.6 90.6 90.6 90.6 90.6-40.6 90.6-90.6-40.6-90.6-90.6-90.6" fill="#fff"/><path d="m368.1 246.2c-19.6 0-39.6-5-57.8-15.5-26.9-15.5-46-40.5-54.1-70.5-8-29.9-3.9-61.2 11.6-88 15.5-26.9 40.5-46 70.5-54.1s61.2-3.9 88 11.6 46 40.5 54.1 70.5c8 29.9 3.9 61.2-11.6 88-21.5 37.1-60.6 58-100.7 58m.4-196.9c-7 0-14.1.9-21.1 2.8-20.9 5.6-38.3 19-49.1 37.7-10.8 18.7-13.7 40.5-8.1 61.4 5.6 20.9 19 38.3 37.7 49.1 18.7 10.8 40.5 13.7 61.4 8.1s38.3-19 49.1-37.7 13.7-40.5 8.1-61.4c-5.6-20.9-19-38.3-37.7-49.1-12.5-7.3-26.4-10.9-40.3-10.9" fill="#013ba6"/><path d="m368.1 236.4c-18.4 0-36.6-4.9-53-14.2-24.6-14.1-42.2-37.1-49.5-64.5-7.4-27.4-3.6-56 10.6-80.6 14.1-24.6 37.1-42.2 64.5-49.5 27.4-7.4 56-3.6 80.6 10.6 24.6 14.1 42.2 37.1 49.5 64.5s3.6 56-10.6 80.6c-14.1 24.6-37.1 42.2-64.5 49.5-9 2.5-18.3 3.6-27.6 3.6m.4-196.9c-7.8 0-15.8 1-23.6 3.2-23.3 6.3-42.9 21.3-55.1 42.3-12.1 21-15.3 45.4-9 68.7s21.3 42.9 42.3 55.1c43.3 25 98.8 10.1 123.8-33.2 12.1-21 15.3-45.4 9-68.7s-21.3-42.9-42.3-55.1c-13.9-8.2-29.4-12.3-45.1-12.3" fill="#fff"/><path d="m368.5 416.7c-10.1 0-20.2-1.4-30.2-4-29.9-8-55-27.2-70.5-54.1-15.5-26.9-19.6-58.1-11.6-88 8-29.9 27.2-55 54.1-70.5 26.9-15.5 58.1-19.6 88-11.6 29.9 8 55 27.2 70.5 54.1s19.6 58.1 11.6 88-27.2 55-54.1 70.5c-17.8 10.3-37.7 15.6-57.8 15.6m-.3-196.9c-14 0-27.8 3.7-40.3 10.9-18.7 10.8-32.1 28.2-37.7 49.1-5.6 20.9-2.7 42.6 8.1 61.4s28.2 32.1 49.1 37.7c20.9 5.6 42.6 2.7 61.4-8.1s32.1-28.2 37.7-49.1 2.7-42.6-8.1-61.4c-10.8-18.7-28.2-32.1-49.1-37.7-7-1.9-14.1-2.8-21.1-2.8" fill="#013ba6"/><path d="m368.5 406.9c-9.2 0-18.6-1.2-27.7-3.7-27.4-7.4-50.4-25-64.5-49.5-14.1-24.6-17.9-53.3-10.6-80.6 7.3-27.4 25-50.4 49.5-64.5 24.6-14.1 53.3-17.9 80.6-10.6 27.4 7.3 50.4 25 64.5 49.5 14.1 24.6 17.9 53.3 10.6 80.6-7.4 27.4-25 50.4-49.5 64.5-16.3 9.5-34.5 14.3-52.9 14.3m-.3-197c-15.7 0-31.2 4.1-45.1 12.2-21 12.1-36 31.6-42.3 55.1-6.3 23.3-3.1 47.8 9 68.7 12.1 21 31.6 36 55.1 42.3 23.3 6.3 47.8 3.1 68.7-9 21-12.1 36-31.6 42.3-55.1 6.3-23.4 3.1-47.8-9-68.7-12.1-21-31.6-36-55.1-42.3-7.8-2.1-15.8-3.2-23.6-3.2" fill="#fff"/><path d="m269.7 416.7c-20.1 0-39.9-5.3-57.8-15.6-26.9-15.5-46-40.5-54.1-70.5-8-29.9-3.9-61.2 11.6-88 32-55.4 103.1-74.4 158.5-42.4s74.4 103.1 42.4 158.5c-15.5 26.9-40.5 46-70.5 54.1-9.9 2.6-20.1 3.9-30.1 3.9m.3-196.9c-27.9 0-55.2 14.5-70.2 40.4-10.8 18.7-13.7 40.5-8.1 61.4s19 38.3 37.7 49.1c18.7 10.8 40.5 13.7 61.4 8.1 20.9-5.6 38.3-19 49.1-37.7 10.8-18.7 13.7-40.5 8.1-61.4-5.6-20.9-19-38.3-37.7-49.1-12.7-7.3-26.6-10.8-40.3-10.8" fill="#013ba6"/><path d="m269.7 406.9c-18.4 0-36.6-4.9-53-14.2-24.6-14.1-42.2-37.1-49.5-64.5-7.4-27.4-3.6-56 10.6-80.6 14.1-24.6 37.1-42.2 64.5-49.5 27.4-7.4 56-3.6 80.6 10.6 24.6 14.1 42.2 37.1 49.5 64.5 7.3 27.4 3.6 56-10.6 80.6-14.2 24.6-37.1 42.2-64.5 49.5-9.1 2.4-18.4 3.6-27.6 3.6m.3-196.9c-31.4 0-61.9 16.2-78.7 45.3-12.1 21-15.3 45.4-9 68.7s21.3 42.9 42.3 55.1c21 12.1 45.4 15.3 68.7 9 23.3-6.3 42.9-21.3 55.1-42.3 25-43.3 10.1-98.8-33.2-123.8-14.2-8.1-29.8-12-45.2-12" fill="#fff"/><path d="m220.6 331.4c-64 0-116-52.1-116-116.1s52.1-116 116.1-116 116 52.1 116 116.1-52.1 116-116.1 116m0-196.9c-44.6 0-80.8 36.3-80.8 80.8s36.3 80.8 80.8 80.8 80.8-36.3 80.8-80.8-36.2-80.8-80.8-80.8" fill="#013ba6"/><path d="m220.6 321.7c-58.6 0-106.2-47.7-106.2-106.2s47.6-106.3 106.2-106.3 106.3 47.6 106.3 106.1c0 58.7-47.6 106.4-106.3 106.4m0-196.9c-50 0-90.6 40.6-90.6 90.6s40.6 90.6 90.6 90.6 90.6-40.7 90.6-90.7c.1-49.9-40.6-90.5-90.6-90.5" fill="#fff"/><g clip-path="url(#0)"><path d="m270.1 246.2c-40.1 0-79.2-20.8-100.6-58-32-55.4-13-126.5 42.4-158.5 26.8-15.6 58.1-19.7 88-11.7 29.9 8 55 27.2 70.5 54.1 32 55.4 13 126.5-42.4 158.5-18.4 10.5-38.3 15.6-57.9 15.6m-70.2-75.6c22.3 38.6 71.8 51.9 110.5 29.6 38.6-22.3 51.9-71.8 29.6-110.5-10.8-18.7-28.2-32.1-49.1-37.7-20.9-5.6-42.6-2.7-61.4 8.1-38.6 22.3-52 71.8-29.6 110.5" fill="#013ba6"/></g><path d="m270.1 236.3c-36.8 0-72.5-19-92.2-53.1-14.1-24.6-17.9-53.3-10.6-80.6 7.4-27.4 25-50.4 49.5-64.5 24.5-14.1 53.2-17.9 80.6-10.6 27.4 7.4 50.4 25 64.5 49.5 29.3 50.7 11.8 115.9-38.9 145.2-16.7 9.5-34.9 14.1-52.9 14.1m-78.7-60.9c25 43.3 80.6 58.1 123.8 33.2s58.1-80.6 33.2-123.8c-12.1-21-31.6-36-55.1-42.3s-47.8-3.1-68.7 9c-21 12.1-36 31.6-42.3 55.1s-3 47.9 9.1 68.8" fill="#fff"/><g clip-path="url(#1)"><path d="m319.1 331.3c-64 0-116-52-116-116s52-116 116-116c64 0 116 52 116 116s-52.1 116-116 116m0-196.8c-44.6 0-80.8 36.3-80.8 80.8s36.3 80.8 80.8 80.8c44.6 0 80.8-36.3 80.8-80.8s-36.2-80.8-80.8-80.8" fill="#013ba6"/></g><path d="m319.1 321.5c-58.6 0-106.2-47.6-106.2-106.2s47.6-106.2 106.2-106.2c58.6 0 106.2 47.6 106.2 106.2s-47.6 106.2-106.2 106.2m0-196.7c-49.9 0-90.6 40.6-90.6 90.6 0 49.9 40.6 90.6 90.6 90.6s90.6-40.6 90.6-90.6c0-50-40.7-90.6-90.6-90.6" fill="#fff"/><g clip-path="url(#2)"><path d="m417.5 331.3c-64 0-116-52-116-116s52-116 116-116 116 52 116 116-52.1 116-116 116m0-196.8c-44.6 0-80.8 36.3-80.8 80.8s36.3 80.8 80.8 80.8 80.8-36.3 80.8-80.8-36.2-80.8-80.8-80.8" fill="#013ba6"/></g><g clip-path="url(#3)"><path d="m417.5 321.5c-58.6 0-106.2-47.6-106.2-106.2s47.6-106.2 106.2-106.2 106.2 47.6 106.2 106.2-47.6 106.2-106.2 106.2m0-196.7c-49.9 0-90.6 40.6-90.6 90.6 0 49.9 40.6 90.6 90.6 90.6s90.6-40.6 90.6-90.6c0-50-40.7-90.6-90.6-90.6" fill="#fff"/></g><g clip-path="url(#6)"><path d="m269.6 416.7c-20.1 0-39.9-5.3-57.8-15.6-55.4-32-74.4-103-42.5-158.4 15.5-26.8 40.5-46 70.4-54 29.9-8 61.2-3.9 88 11.6 26.8 15.5 46 40.5 54 70.4 8 29.9 3.9 61.2-11.6 88-15.5 26.8-40.5 46-70.4 54-9.8 2.7-20 4-30.1 4m.4-196.9c-7 0-14.1.9-21 2.8-20.8 5.6-38.3 19-49.1 37.7-22.3 38.6-9 88.1 29.6 110.4 18.7 10.8 40.5 13.7 61.3 8.1s38.3-19 49.1-37.7c10.8-18.7 13.7-40.5 8.1-61.3-5.6-20.8-19-38.3-37.7-49.1-12.5-7.2-26.3-10.9-40.3-10.9" fill="#013ba6"/></g><g clip-path="url(#7)"><path d="m269.7 406.9c-18.4 0-36.6-4.8-52.9-14.3-50.7-29.3-68.2-94.4-38.9-145.1 14.2-24.6 37.1-42.1 64.5-49.5 27.4-7.3 56-3.6 80.6 10.6 24.6 14.2 42.1 37.1 49.5 64.5 7.3 27.4 3.6 56-10.6 80.6-14.2 24.6-37.1 42.1-64.5 49.5-9.2 2.5-18.5 3.7-27.7 3.7m.3-196.9c-7.9 0-15.8 1-23.6 3.1-23.4 6.3-42.9 21.2-55 42.2-25 43.3-10.1 98.8 33.2 123.7 21 12.1 45.4 15.3 68.7 9 23.4-6.3 42.9-21.3 55-42.2 12.1-21 15.3-45.4 9-68.7-6.3-23.4-21.2-42.9-42.2-55-13.9-8-29.4-12.1-45.1-12.1" fill="#fff"/></g><g clip-path="url(#4)"><path d="m368.3 416.6c-64 0-116-52-116-116s52-116 116-116 116 52 116 116-52.1 116-116 116m0-196.7c-44.6 0-80.8 36.3-80.8 80.8s36.3 80.8 80.8 80.8 80.8-36.3 80.8-80.8-36.2-80.8-80.8-80.8" fill="#013ba6"/></g><g clip-path="url(#5)"><path d="m368.3 406.9c-58.6 0-106.2-47.6-106.2-106.2 0-58.6 47.6-106.2 106.2-106.2 58.6 0 106.2 47.6 106.2 106.2 0 58.5-47.6 106.2-106.2 106.2m0-196.8c-49.9 0-90.6 40.6-90.6 90.6s40.6 90.6 90.6 90.6c49.9 0 90.6-40.6 90.6-90.6s-40.7-90.6-90.6-90.6" fill="#fff"/></g></svg>