<svg xmlns="http://www.w3.org/2000/svg" viewBox="0 0 640 440" enable-background="new 0 0 640 440"><path d="M160,0h320v440H160V0z" fill="#fff"/><path d="m0 0h160v440h-160v-440m480 0h160v440h-160v-440m-272.1 212.6l-12.4 4.1 57.8 49.4c4.4 12.7-1.5 16.4-5.3 23.1l62.8-7.8-1.6 61.5 13-.4-2.8-60.9 62.8 7.2c-3.9-8-7.3-12.2-3.8-25l57.8-46.8-10.1-3.6c-8.3-6.2 3.6-29.9 5.4-44.8 0 0-33.7 11.3-35.9 5.4l-8.6-16.1-30.7 32.8c-3.4.8-4.8-.5-5.6-3.3l14.2-68.5-22.5 12.3c-1.9.8-3.8.1-5-2l-21.6-42.2-22.3 43.8c-1.7 1.6-3.4 1.8-4.8.7l-21.4-11.7 12.8 68c-1 2.7-3.5 3.5-6.3 2l-29.3-32.4c-3.8 6-6.4 15.8-11.5 17.9-5.1 2.1-22.1-4.1-33.5-6.6 3.9 13.8 16 36.5 8.4 43.9" fill="#bf0a30"/></svg>