<svg xmlns="http://www.w3.org/2000/svg" viewBox="0 0 640 440" enable-background="new 0 0 640 440"><path d="M0,0h640v440H0V0z" fill="#de2910"/><g fill="#ffde00"><path d="M81,178.3L123.3,48l42.3,130.3L54.8,97.7h137.1L81,178.3z"/><path d="m264.2 50.1l-44.5 10.2 30-34.4-4.1 45.5-23.5-39.2 42.1 17.9"/><path d="m309.2 107l-45-7.8 41-20.1-21.4 40.4-6.4-45.2 31.8 32.7"/><path d="m302.8 186.9l-37.9-25.5 45.6-1.6-36 28.1 12.6-43.9 15.7 42.9"/><path d="m246.3 239.2l-25.1-38.2 42.7 16.1-44.1 12.1 28.6-35.7-2.1 45.7"/></g></svg>