<svg xmlns="http://www.w3.org/2000/svg" viewBox="0 0 640 440" enable-background="new 0 0 640 440"><path fill="#001c85" d="m0 0h640v440h-640z"/><g fill="#f5cd21"><path d="m197.6 123.5l5.4 16.5h17.4l-14.1 10.3 5.4 16.5-14.1-10.2-14 10.2 5.3-16.5-14-10.3h17.4z"/><path d="m247.8 72.4l5.4 16.6h17.4l-14.1 10.2 5.4 16.5-14.1-10.2-14 10.2 5.4-16.5-14.1-10.2h17.4z"/><path d="m319.4 53.2l5.3 16.5h17.4l-14.1 10.2 5.4 16.5-14-10.2-14.1 10.2 5.4-16.5-14.1-10.2h17.4z"/><path d="m390.1 72.5l5.3 16.5h17.4l-14.1 10.3 5.4 16.5-14-10.2-14.1 10.2 5.4-16.5-14.1-10.3h17.4z"/><path d="m442.1 124.6l5.4 16.5h17.4l-14.1 10.2 5.4 16.5-14.1-10.2-14 10.2 5.3-16.5-14-10.2h17.4z"/><path d="m461.4 196.1l5.4 16.5h17.3l-14 10.2 5.4 16.5-14.1-10.2-14 10.2 5.3-16.5-14-10.2h17.3z"/><path d="m442.1 267.8l5.3 16.6h17.4l-14.1 10.2 5.4 16.5-14-10.2-14.1 10.2 5.4-16.5-14.1-10.2h17.4z"/><path d="m390 319.6l5.4 16.5h17.3l-14 10.2 5.3 16.5-14-10.2-14.1 10.2 5.4-16.5-14-10.2h17.3z"/><path d="m319.5 338.5l5.4 16.5h17.4l-14.1 10.2 5.4 16.5-14.1-10.2-14 10.2 5.3-16.5-14-10.2h17.4z"/><path d="m248 319.2l5.4 16.5h17.3l-14 10.2 5.4 16.5-14.1-10.2-14 10.2 5.3-16.5-14-10.2h17.3z"/><path d="m197 267.5l5.4 16.5h17.3l-14 10.2 5.3 16.5-14-10.2-14.1 10.2 5.4-16.5-14-10.2h17.3z"/><path d="m177.5 194.8l5.4 16.7h17.5l-14.2 10.3 5.4 16.6-14.1-10.3-14.2 10.3 5.4-16.6-14.2-10.3h17.5z"/></g></svg>