<svg xmlns="http://www.w3.org/2000/svg" xmlns:xlink="http://www.w3.org/1999/xlink" viewBox="0 0 640 440" enable-background="new 0 0 640 440"><defs><path id="1" d="m0 0h639.6v439.7h-639.6z"/><clipPath id="0"><use xlink:href="#1"/></clipPath></defs><path d="M0,0h719.5v48.9H0V0z" fill="#0d5eaf" clip-path="url(#0)"/><path d="M0,48.9h719.5v48.9H0V48.9z" fill="#fff" clip-path="url(#0)"/><path d="M0,97.7h719.5v48.9H0V97.7z" fill="#0d5eaf" clip-path="url(#0)"/><path d="M0,146.6h719.5v48.9H0V146.6z" fill="#fff" clip-path="url(#0)"/><path d="M0,195.4h719.5v48.9H0V195.4z" fill="#0d5eaf" clip-path="url(#0)"/><path d="M0,244.3h719.5v48.9H0V244.3z" fill="#fff" clip-path="url(#0)"/><path d="M0,293.1h719.5V342H0V293.1z" fill="#0d5eaf" clip-path="url(#0)"/><path d="M0,342h719.5v48.9H0V342z" fill="#fff" clip-path="url(#0)"/><path d="M0,390.8h719.5v48.9H0V390.8z M0,0h266.5v244.3H0V0z" fill="#0d5eaf" clip-path="url(#0)"/><g clip-path="url(#0)" fill="#fff"><path d="M106.6,0h53.3v244.3h-53.3V0z"/><path d="M0,97.7h266.5v48.9H0V97.7z"/></g></svg>