<svg xmlns="http://www.w3.org/2000/svg" xmlns:xlink="http://www.w3.org/1999/xlink" viewBox="0 0 640 440" enable-background="new 0 0 640 440"><defs><path id="2" d="m0 0h640v440h-640z"/><clipPath id="1"><use xlink:href="#2"/></clipPath></defs><g fill="#fff"><path d="M632,438.8H8V1.2h624V438.8z" clip-path="url(#1)"/><path d="m325.4 220.4c0 53.1-43 96.1-96.1 96.1-53.1 0-96.1-43-96.1-96.1 0-53.1 43-96.1 96.1-96.1 53.1-.1 96.1 43 96.1 96.1" clip-path="url(#1)"/></g><path d="m446 226c0 69.3-55.6 125.5-124.1 125.5s-124.1-56.2-124.1-125.5 55.6-125.5 124.1-125.5 124.1 56.2 124.1 125.5" fill="#c70000" clip-path="url(#1)"/><path d="m67.9 109.7l71.5-82.7 16.9 14.6-71.5 82.7-16.9-14.6m23.5 20.2l71.5-82.7 16.9 14.6-71.5 82.7-16.9-14.6" clip-path="url(#1)"/><path d="m67.9 109.7l71.5-82.7 16.9 14.6-71.5 82.7-16.9-14.6" clip-path="url(#1)" id="0"/><path d="m67.9 109.7l71.5-82.7 16.9 14.6-71.5 82.7-16.9-14.6m47.4 40.9l71.5-82.7 16.9 14.6-71.5 82.7-16.9-14.6" clip-path="url(#1)"/><use xlink:href="#0"/><path d="m67.9 109.7l71.5-82.7 16.9 14.6-71.5 82.7-16.9-14.6m434.9-82.8l70.9 83.2-17 14.5-70.9-83.2 17-14.5m-47.6 40.6l70.9 83.2-17 14.5-70.9-83.2 17-14.5" clip-path="url(#1)"/><path d="m467 115.4l67.2-58 12.5 14.6-71.8 64.5-7.9-21.1" fill="#fff" clip-path="url(#1)"/><path d="m549.6 319.5l-68.7 81.9-16.8-14 68.7-81.9 16.8 14m-70.4-272.5l70.9 83.2-17 14.5-70.9-83.2 17-14.5m93.7 291.9l-68.7 81.9-16.8-14 68.7-81.9 16.8 14m-47.1-39.2l-68.7 81.9-16.8-14 68.7-81.9 16.8 14" clip-path="url(#1)"/><path d="m199.6 203.9c3.9 31.6 9.7 66.8 58.3 70.5 18.2 1.1 53.7-4.3 65.9-54 16-47.7 64.1-61.4 96.8-35.6 18.6 12.1 23.7 31.3 25 45.8-1.5 46.4-28.1 86.5-62.2 104.4-39.3 23.3-93.6 23.8-141.3-11.5-21.5-20.3-51.5-57.4-42.5-119.6" fill="#3d5897" clip-path="url(#1)"/><path d="m482.7 318.3l67.3 57.8-12.5 14.5-74.5-61.4 19.7-10.9" fill="#fff" clip-path="url(#1)"/><path d="m108.6 306.9l70.9 83.2-17 14.5-70.9-83.2 17-14.5" clip-path="url(#1)"/><path d="m96.3 375.3l67.2-58 12.5 14.5-71.8 64.5-7.9-21" fill="#fff" clip-path="url(#1)"/><path d="m132.1 286.8l70.9 83.2-17 14.5-70.9-83.2 17-14.5m-47.6 40.6l70.9 83.2-17 14.5-70.9-83.2 17-14.5" clip-path="url(#1)"/></svg>