<?xml version="1.0" encoding="utf-8"?>
<!-- Generator: Adobe Illustrator 21.0.0, SVG Export Plug-In . SVG Version: 6.00 Build 0)  -->
<svg version="1.1" id="Layer_1" xmlns="http://www.w3.org/2000/svg" xmlns:xlink="http://www.w3.org/1999/xlink" x="0px" y="0px"
	 width="640px" height="440px" viewBox="0 0 640 440" style="enable-background:new 0 0 640 440;" xml:space="preserve">
<style type="text/css">
	.st0{fill:#6FDCFF;}
	.st1{fill:#FFE400;}
</style>
<path class="st0" d="M0,0h640v440H0V0z"/>
<path class="st1" d="M60.2,432.4c20,18.1,17.1-6,20.2-10.9c-16,25.6,1.3-57.7,1.3-22c0,13.1-11.9-10.3-11.9,3.9
	c0,11.3,24.9-7.3,6.7,13.3c13.8-8.4,11.5-34.7-13.9-20.6c-16.5,9.2,34.8,38.7,11.1,39.5c-7.9-2.3-12.5-7.2-13.8-14.7
	c-2.3,4.3-12.8,24.4-21.8,11.4c-3.7-5.5,20.5-24.4,14.2-40c0.1,0.2-38.7,7.5-10.9,24.3C23,396.2,48,414.4,48,403.3
	c0-14.2-11.9,9.1-11.9-3.9c0-35.5,25.5,54.6,0.9,22.9C39.1,425,38,453.2,60.2,432.4z"/>
<path class="st1" d="M59.1,316.7c33.3-30.2,22.6,6.6,24.7,20.9c1.5,10.3-18.1,28.2-19.7,39.3c-1.5,10,17.6,14.4,17.6,5.5
	c0-13.1-11.9,10.3-11.9-3.9c0-11.3,24.9,7.3,6.7-13.3c25.5,15.4-14.8,40.6-13.7,3.7c0.5-16.7,23.2-32.5,24.3-49.1
	c1.2-17.4-20.5-7.5-24.7,2c2.2,0.1,14.7-3.3,12.3,2.1c-23.4,1.4-8.6,4.7-7.2,9.9c-12.4,6.1-4.7,6.2-17.1,0c1.4-5.2,16.2-8.5-7.2-9.9
	c-2.4-5.3,10.1-2,12.3-2.1c-4.1-9.8-25.9-19.1-24.7-2c1.1,16.7,23.8,32.5,24.3,49.1c1.1,37-39.3,11.8-13.8-3.7
	C23,385.6,48,367.3,48,378.4c0,14.2-11.9-9.1-11.9,3.9c0,5.5,19.5,7.8,17.6-5.5C51.8,363.5,33,349.7,34,337.4
	C35.1,323.1,25.3,285.1,59.1,316.7z"/>
<path class="st1" d="M59.1,294.3c33.3,30.2,22.6-6.6,24.7-20.9c1.5-10.3-18.1-28.2-19.7-39.3c-1.5-10,17.6-14.4,17.6-5.5
	c0,13.1-11.9-10.3-11.9,3.9c0,11.3,24.9-7.3,6.7,13.3c25.5-15.4-14.8-40.6-13.7-3.7c0.5,16.6,23.1,32.4,24.2,49
	c1.1,17.4-20.5,7.5-24.7-2c2.2-0.1,14.7,3.3,12.3-2.1c-23.4-1.4-8.6-4.7-7.2-9.9c-12.4-6.1-4.7-6.2-17.1,0c1.4,5.2,16.2,8.5-7.2,9.9
	c-2.4,5.3,10.1,2,12.3,2.1c-4.1,9.8-25.9,19.1-24.7,2c1.1-16.7,23.8-32.5,24.3-49.1c1.1-37-39.3-11.8-13.8,3.7
	c-18.3-20.4,6.7-2.2,6.7-13.3c0-14.2-11.9,9.1-11.9-3.9c0-5.5,19.5-7.8,17.6,5.5c-1.9,13.4-20.7,27.1-19.7,39.4
	C35,287.6,25.3,325.9,59.1,294.3z"/>
<path class="st1" d="M59.1,145.7c33.3-30.2,22.6,6.6,24.7,20.9c1.5,10.3-18.1,28.2-19.7,39.3c-1.5,10,17.6,14.4,17.6,5.5
	c0-13.1-11.9,10.3-11.9-3.9c0-11.3,24.9,7.3,6.7-13.3c25.5,15.4-14.8,40.6-13.7,3.7c0.5-16.7,23.2-32.5,24.3-49.1
	c1.2-17.4-20.5-7.5-24.7,2c2.2,0.1,14.7-3.3,12.3,2.1c-23.4,1.4-8.6,4.7-7.2,9.9c-12.4,6.1-4.7,6.2-17.1,0c1.4-5.2,16.2-8.5-7.2-9.9
	c-2.4-5.3,10.1-2,12.3-2.1c-4.1-9.8-25.9-19.1-24.7-2c1.1,16.7,23.8,32.5,24.3,49.1c1.1,37-39.3,11.8-13.8-3.7
	C23,214.6,48,196.4,48,207.5c0,14.2-11.9-9.1-11.9,3.9c0,5.5,19.5,7.8,17.6-5.5C51.8,192.5,33,178.8,34,166.5
	C35.1,152.3,25.4,114.2,59.1,145.7z"/>
<path class="st1" d="M59.1,123.3c33.3,30.2,22.6-6.6,24.7-20.9c1.5-10.3-18.1-28.2-19.7-39.3c-1.5-10,17.6-14.4,17.6-5.5
	c0,13.1-11.9-10.3-11.9,3.9c0,11.3,24.9-7.3,6.7,13.3c25.5-15.4-14.8-40.6-13.7-3.7c0.5,16.7,23.2,32.5,24.3,49.1
	c1.2,17.4-20.5,7.5-24.7-2c2.2-0.1,14.7,3.3,12.3-2.1c-23.4-1.4-8.6-4.7-7.2-9.9c-12.4-6.1-4.7-6.2-17.1,0c1.4,5.2,16.2,8.5-7.2,9.9
	c-2.4,5.3,10.1,2,12.3,2.1c-4.1,9.8-25.9,19.1-24.7,2c1.1-16.7,23.8-32.5,24.3-49.1c1.1-37-39.3-11.8-13.8,3.7
	C23,54.4,48,72.6,48,61.5c0-14.2-11.9,9.1-11.9-3.9c0-5.5,19.5-7.8,17.6,5.5C51.8,76.4,33,90.2,34,102.4
	C35.1,116.5,25.4,154.9,59.1,123.3z"/>
<path class="st1" d="M60.2,7.6c20-18.2,17,5.8,20.2,10.8c-16.1-25.6,1.3,57.7,1.3,22c0-13.1-11.9,10.3-11.9-3.9
	c0-11.3,24.9,7.3,6.7-13.3c13.8,8.4,11.5,34.7-14,20.6C46.1,34.7,97.4,5.2,73.6,4.4c-7.9,2.3-12.5,7.2-13.8,14.7
	C57.5,14.8,47-5.3,38,7.7C34.4,13,58.6,32.1,52.4,47.6c0.1-0.3-38.8-7.5-10.9-24.3c-18.3,20.4,6.7,2.2,6.7,13.3
	c0,14.2-11.9-9.1-11.9,3.9c0,35.5,25.4-54.6,0.9-22.9C39.4,14.8,38.1-13.1,60.2,7.6z"/>
<path class="st1" d="M358.9,138.8L358.9,138.8c34.8,0,62.9,26.7,62.9,59.5l0,0c0,32.9-28.2,59.5-62.9,59.5l0,0
	c-34.8,0-62.9-26.7-62.9-59.5l0,0C295.9,165.5,324.1,138.8,358.9,138.8z"/>
<path class="st1" d="M355.8,103.3c-0.5,0-3.3,19.8-4.4,24.3c-1,9.9,13.4,9.6,11-0.3L355.8,103.3L355.8,103.3z M360.9,295.3
	c0.5,0.1,4.8-19.6,6.2-24c1.7-9.8-12.7-10.4-11-0.3L360.9,295.3L360.9,295.3z M260.7,198.1c-0.1,0.5,20.6,4.6,25.3,6
	c10.3,1.6,11.1-11.9,0.3-10.4L260.7,198.1z M461.4,200.3c0-0.5-20.8-3.9-25.5-5.1c-10.4-1.2-10.5,12.3,0.1,10.4L461.4,200.3
	L461.4,200.3z M281.8,135.3c-0.3,0.3,13.2,15.6,16,19.5c7.1,7.4,16.5-2.9,7.1-8L281.8,135.3L281.8,135.3z M437.9,261.6
	c0.3-0.3-14.6-14.5-17.7-18.1c-7.8-6.7-16.1,4.3-6.4,8.5L437.9,261.6L437.9,261.6z M313,113.9c-0.4,0.2,5.9,19.3,6.9,23.8
	c3.5,9.4,16.4,3.3,9.8-4.8C329.7,132.8,313,113.9,313,113.9z M403.9,285.5c0.5-0.1-4.4-19.7-5.2-24.2c-2.9-9.6-16.1-4.4-10.1,4.2
	L403.9,285.5L403.9,285.5z M426.2,127.1c-0.3-0.3-16.8,12.3-20.8,14.7c-7.9,6.6,2.8,15.6,8.3,6.9L426.2,127.1L426.2,127.1z
	 M291,270.3c0.3,0.3,17.7-11.1,21.9-13.4c8.4-6.1-1.6-15.8-7.8-7.4L291,270.3z M265.1,163.7c-0.2,0.4,17.8,10.9,21.7,13.6
	c9.1,4.8,14.6-7.8,4.1-9.7L265.1,163.7L265.1,163.7z M452.7,236.4c0.2-0.4-17-12-20.6-15c-8.8-5.4-15.2,6.8-4.7,9.4L452.7,236.4z
	 M393.1,108.8c-0.5-0.2-10.8,17.3-13.5,21c-4.7,8.9,8.7,13.5,10.4,3.5L393.1,108.8L393.1,108.8z M323.8,289.2
	c0.4,0.2,12-16.5,15-20.1c5.4-8.6-7.8-14.1-10.1-4.2L323.8,289.2L323.8,289.2z M266.5,238c0.2,0.4,20.7-4.4,25.4-5.1
	c10.1-2.8,4.4-15.3-4.5-9.6L266.5,238z M452.8,162.3c-0.1-0.4-21,3-25.8,3.4c-10.2,2.1-5.5,15,3.7,9.8L452.8,162.3z"/>
<path class="st1" d="M363.5,348.2c2.9-0.1,5.8-0.2,8.7-0.3c-9.3-5.4-20.7,1.4-30.3-2.5c5.6-7.7-2.3-2.8,5.9-9
	c-3.5,0.2-33.5,7.5-29.9,15.2C318.9,353.3,358.4,348,363.5,348.2z"/>
<path class="st1" d="M512.3,242.8c0.3-2.7-26.4,16.7-27.9,17.5c6.8-6.6,24.4-23.1,24.2-32.4c-0.4-17.6-21.3,15.8-24.6,18.5
	c2.4-4.5,19.3-44.5,8.1-43c-7.5,1.3-8.9,28.2-12.8,33.8c0.3-1.8,5.3-25.9-1.5-24.1c-8.3,2.2-13.4,30.4-17,37.2
	c-10.3,19.7-26.3,35.5-46.5,45.3c-11.2,5.4-92.2,23.3-91.7,45.9c10.3,1.3,12.9-4.3,22.7-10.9c17.5-11.8,33.6-14.6,53.1-21.7
	c15.6-5.7,33.2-14.5,45.8-25.5c10-8.7,17.9-28.2,34.5-24.6c-0.7,5.2-2.9,9.5-6.7,13c19.5-0.4-8,5.6,5.9,10.6
	c-5.1-3.5-51.2,45.3-60.7,46.2c13.2,1,30.2-1.2,40.1-11.1c-2.2-1.7-4.6-3.3-7.1-4.5c6-2.1,12.2-3.5,18.6-4.3c-3-1.4-6.1-2.3-9.3-2.7
	c0.6-5.1,37.6-4.7,6.7-7.4c6.8-1.7,13.2-4.1,19.5-7.2c1.6-1.7-8.5-2.5-8.4-2.4c0.6,0.9,23.5-17.1,23.7-21.2c0-0.7-15.8,4.4-16.6,4.2
	C494.8,263.8,505.1,254.1,512.3,242.8z"/>
<path class="st1" d="M407,337.1c-7.4,0.8-8.1,9.6-14.3,12.3c-5.6,2.4-11.8,1.1-17.6,1.9c-11.7,1.6-32.9-3.7-37.1,12.4
	c5.3,0,9.9-1.8,13.8-5.5c-0.3,9.9,3.1,9.6,10.1-0.9c-1,10.7,2.6,10.9,10.8,0.5c-9.6,1.6,17.7,7.7,10.4,0.5
	c9,9.1,60.4-13.2,59.6-18.6C430.7,339.1,418.9,336.6,407,337.1z"/>
<path class="st1" d="M240.2,253.5c19,17.1,97.1,87.9,117.2,55.2c-33.9-2.1-65.1-14.8-86.5-41.3c-3.1-3.8-34.5-53.2-31.3-54.3
	c-6.2,2-0.6,20.1,0.1,24.2c-3-4.5-9.7-42.1-16.9-30.6c-5.4,8.6,8.2,32,12.3,39.9c-4.2-3.5-22.5-34.4-24.9-18.7
	c-1,6.3,17.1,29,23.3,32c-1.4-0.7-25.5-23.6-25.9-18.1c-0.4,6.4,27.2,29.9,26.7,30.6c-5.4-1.1-10.6-3.1-15.4-5.8
	c-0.5,0.1,24.3,18.9,27.5,20.4c-0.9,0.4-15,1.5-15.3,1.1c6.1,3.7,12.6,5.8,19.7,6.4c-1.4,1.2-10.9,1.4-11.3,3.5
	c1.3,0.9,13.6,5.1,14.8,3.8c-2.8,0.7-5.4,1.8-8,3.1c5.1,2.5,10.5,3.9,16.2,4.4c-14.6,6.4,36.5,18.4,43.4,18.8
	c-8.6-1.6-46-10.3-34.8-19.7c-10.2-0.4-20.7-20.2-32.2-29.6c10.1-3,1.5-3.5-3.7-11.3C246.6,265.3,234.2,249.9,240.2,253.5z"/>
</svg>
