<svg xmlns="http://www.w3.org/2000/svg" viewBox="0 0 640 440" enable-background="new 0 0 640 440"><path d="M0,0h640v220H0V0z" fill="#0038a8"/><path d="M0,220h640v220H0V220z" fill="#ce1126"/><path d="M415.7,220L0,440V0" fill="#fff"/><g fill="#fcd116"><circle cx="149.3" cy="220" r="48"/><path d="m48 220l6.3 6.3 95.1-6.3-95.1-6.3-6.3 6.3"/><path d="m58.6 231.9l5.1 5.1 85.6-17-90.7 11.9"/><path d="m58.6 208.1l5.1-5.1 85.6 17-90.7-11.9"/><path d="m77.7 148.3v8.9l71.7 62.8-62.8-71.7h-8.9"/><path d="m76.8 164.3v7.3l72.6 48.5-72.6-55.8"/><path d="m93.6 147.4h7.3l48.5 72.6-55.8-72.6"/><path d="m149.3 118.7l-6.3 6.3 6.3 95.1 6.3-95.1-6.3-6.3"/><path d="m137.4 129.3l-5.1 5.1 17 85.6-11.9-90.7"/><path d="m161.2 129.3l5.1 5.1-17 85.6 11.9-90.7"/><path d="m221 148.3h-8.9l-62.8 71.7 71.7-62.8v-8.9"/><path d="m205.1 147.4h-7.3l-48.5 72.6 55.8-72.6"/><path d="m221.9 164.3v7.3l-72.6 48.4 72.6-55.7"/><path d="m250.7 220l-6.3-6.3-95.1 6.3 95.1 6.3 6.3-6.3"/><path d="m240 208.1l-5.1-5.1-85.6 17 90.7-11.9"/><path d="m240 231.9l-5.1 5.1-85.6-17 90.7 11.9"/><path d="m221 291.7v-8.9l-71.7-62.8 62.8 71.7z"/><path d="m221.9 268.5l-72.6-48.5 72.6 55.7z"/><path d="m205.1 292.6l-55.8-72.6 48.5 72.6z"/><path d="m149.3 321.3l6.3-6.2-6.3-95.1-6.2 95.1z"/><path d="m166.4 305.6l-17.1-85.6 11.9 90.7z"/><path d="m137.4 310.7l11.9-90.7-17 85.6z"/><path d="m77.7 291.7h8.9l62.7-71.7-71.6 62.8z"/><path d="m93.6 292.6h7.3l48.4-72.6z"/><path d="m76.8 275.7l72.5-55.7-72.5 48.5z"/><path d="m349.7 213.7l-.4-19.1-11.6 15.3-18.2-5.6 10.9 15.7-10.9 15.7 18.2-5.6 11.6 15.3.4-19.1 18-6.3z"/><path d="m61.7 384.5l-19 1.6-8.2-17.3-4.3 18.6-19 2.4 16.4 9.9-3.6 18.7 14.4-12.5 16.8 9.3-7.4-17.6z"/><path d="m47.8 42.4l7.4-17.6-16.8 9.3-14.4-12.5 3.6 18.7-16.4 9.9 19 2.4 4.3 18.6 8.2-17.3 19 1.6z"/></g></svg>