<?xml version="1.0" encoding="utf-8"?>
<!-- Generator: Adobe Illustrator 21.0.0, SVG Export Plug-In . SVG Version: 6.00 Build 0)  -->
<svg version="1.1" id="Layer_1" xmlns="http://www.w3.org/2000/svg" xmlns:xlink="http://www.w3.org/1999/xlink" x="0px" y="0px"
	 width="640px" height="440px" viewBox="0 0 640 440" style="enable-background:new 0 0 640 440;" xml:space="preserve">
<style type="text/css">
	.st0{fill:#FFFFFF;}
	.st1{fill:#0C4076;}
	.st2{fill:#C6363C;}
	.st3{fill:#EDB92E;}
	.st4{fill:#21231E;}
	.st5{fill:#FFFFFF;stroke:#21231E;stroke-width:0.994;}
</style>
<rect x="-6" y="-11" class="st0" width="684" height="456"/>
<rect x="-6" y="-11" class="st1" width="684" height="304"/>
<rect x="-6" y="-11" class="st2" width="684" height="152"/>
<path class="st2" d="M153.4,141.6v137.5l0,0c0,24.6,9.5,46.9,24.9,63.1s36.6,26.2,60,26.2l0,0c23.4,0,44.6-10,60-26.2
	s24.9-38.5,24.9-63.1V141.6C266.6,141.6,210,141.6,153.4,141.6L153.4,141.6z"/>
<path class="st3" d="M283.1,139.3c2.2-0.3,20.7-34.9,23.8-39.6c0.7-2.8-0.6-3.8-3.7-3.1c41.4-26.5-53.2-38.7-64.1-39
	c-12.9-0.3-106.4,12.9-65.7,39c-3.1-0.7-4.3,0.3-3.7,3.1c5.8,8.6,11.6,15.3,15,24c5,12.7,2.6,13.1,18.9,15.8
	c10.6,1.7,23.8-2,34.6-1.8C253.1,138,268.2,141.7,283.1,139.3z M185.5,111.9c5.7-11.5-30.4-30.5,1.2-41c0,11.7,13.5,23.5,12.4,30.9
	c-1.8-2.2-4.1-3.7-6.9-4.3c-1.9,7.5,8.1,18.1,7.7,7.5c6,8.9-8.6,12-7,1.9c1-4.8-8.9,10-5.4,8.5C186.2,115.9,179.1,113,185.5,111.9z
	 M303.7,78.7c-4.8,15.2-9,20.4-13.9,33.3c1-1.4,1.4-1.4,1.3-0.1c0.1,0,3.6-2.3,3.6-2.7c0,1.4-3.1,6.9-5.1,6.3
	c3.2,1-6.7-12.8-5.9-8.6c1.7,10.6-13,6.1-7-2c-0.4,10.6,9.6,0,7.7-7.5c-2.8,0.6-5.1,2-6.9,4.3c-1.1-7.8,13.1-18.6,12.4-30.9
	C293.2,72,303.7,74.1,303.7,78.7z M244.5,90.1c9.7-5.1-2.5-21,2.5-27.5c4.8-6.2,26.8-1.6,29.4,8.1c-1.3-5-6.7,32.3-5.6,30.4
	c0-8.3-7.3-5.7-8.8-0.3c-1.7,6.3,4.2,10.2,8.1,2.9c0,11.3-14.9,10.9-10.3,0.2c-2.3-1.5-4.7-1.6-7.2-0.5c6.6,21.7-18-1.3-11.3-1.9
	c-2.4,0.2-23.8,20.8-18,1.9c-2.5-1.1-4.9-1-7.2,0.5c4.9,10.6-10.3,11-10.3-0.2c4,7.3,9.8,3.3,8.2-2.9c-1.4-5.4-8.8-8.4-8.8,0.3
	c0.2,0.3-2.2-37.9-4.4-33c4.7-10.6,24.9-9.4,28.4-3C232.4,70.8,222.3,102.3,244.5,90.1z"/>
<path class="st3" d="M241.2,52.2c3.5,1.5,5.3,0.5,5.6-2.9c-16.9,0,3.5-10.8-6.8-14.2c-3.2-1.1,3.8-6-1.7-7.7c-5.6-1.8-1.4,6.2-1.7,7
	c-1.9,4.4-4.6-7.4-6.9,2.4c-1.4,6.1,5.9,1,6.9,1.6c0.3,0.2,0.5,10.1,0.8,10.6c-3.6-1-6.3-0.2-7.9,2.6
	C233.4,52.6,237.3,52.8,241.2,52.2z"/>
<path class="st3" d="M219.1,91.7c-0.8,0.7-1.8,4.5,0.3,4.4C220.7,96,221,91.6,219.1,91.7z"/>
<path class="st3" d="M187.7,100.3c1.3-0.4,0.5-4.8-1.3-4.2C185.8,97,185.8,100.9,187.7,100.3z"/>
<path class="st3" d="M232,95.7c-8-6.5-4.7,6.6-5.6,8.3C224,108.3,243.7,104.8,232,95.7z"/>
<path class="st3" d="M257.2,96.1c2.1,0.1,1.1-3.7,0.3-4.4C255.6,91.6,255.9,96,257.2,96.1z"/>
<path class="st3" d="M288.8,100.3c2,0.6,1.9-3.3,1.3-4.2C288.3,95.5,287.6,99.9,288.8,100.3z"/>
<path class="st3" d="M245.9,106.6c7.3,2.3,4.3-7.5,3.5-10.8C248.1,90.4,235.3,102.6,245.9,106.6z"/>
<path class="st3" d="M185.8,314.6c4.4-7.3,13.2-4,18.2-7.8c-2.2-0.6-12.4-7.5-14.2-0.4c2.2-8.8,14.1-10.1,13-21.3
	c-11.4,0.5-10.8,15.6-18.6,20.7c-1.7,1.1-20.7,4.1-20,4.6c1.8,1.2,13.4,1.4,15.2,0.8c1.7-3.8-15.7,13.3-9.8,11.6
	c1.7-0.6,11.8-7.9,12.8-9.4c-0.2,0.6-5.9,23-2.9,19.1C182.4,328.8,183.3,318.7,185.8,314.6z"/>
<path class="st3" d="M202.7,326.9c-1.6,0.8-2.7,2.4-3.4,4.3c1.2-3.7,5.9-17.5-2.6-18.3c-2.7,5.7-7.9,8.1-3.9,14.9
	c-11.6-8.7-5.8,8.1-5.9,8.2c13.3-5.8,2,6.5,3.7,8.4c3.2,0.9,4.9-0.5,4.9-4.3c0,0,2.9,18.5,2.9,0.4c2.3,0,1.2,7,5.5,3.8
	c2.1-2.3-9.2-14.1,3.7-8.4C206.6,335.5,214.1,321.6,202.7,326.9z M195.7,334.2C196.8,341.6,194.6,328.9,195.7,334.2z M198,336.5
	c0.2-1.6,0.6-3.3,1.1-4.8C200.2,335,199.9,336.6,198,336.5z"/>
<path class="st3" d="M308.1,307.7c-1.9-2.2-14.8-2.4-19.3-6.1c-6.1-5-4.6-15.9-15.1-16.4c-1.1,11.2,10.9,12.4,13,21.3
	c-1.5-7.6-11.9,0.4-14.2,0.4c3.4,2.6,11.4,0.7,14.8,4c5.9,5.8,5.1,15.7,9.7,21.7c3,3.9-3-19.3-2.9-19.1c1,1.5,11.1,8.8,12.8,9.4
	c7.5,2.1-11.8-16.6-9.8-11.6c1.7,0.7,13.5,0.4,15.2-0.8C311.6,308.7,310.2,307.7,308.1,307.7z"/>
<path class="st3" d="M285.1,326.9c2.7-1.1-3.3-10.1-5.1-14.1c-8.5,0.8-3.8,14.6-2.6,18.3c-6.1-17.4-11.4,6.1-8.1,4.7
	c12.9-5.7,1.6,6.1,3.7,8.4c3.9,3.2,3.4-3.8,5.5-3.8c0,17.8,5.1-0.4,2.9-0.4c0.1,3.8,1.7,5.2,4.9,4.3c1.7-1.9-9.6-14.2,3.7-8.4
	C289,335.5,296.5,321.6,285.1,326.9z M281.2,332.9C279.9,340.1,280.7,334.9,281.2,332.9z M277.4,331.7c0.4,1.6,0.7,3.2,1.1,4.8
	C276.6,336.6,276.3,335,277.4,331.7z"/>
<path class="st3" d="M199.7,150c-10.1,1.1-5.1,15.6,1.5,15.3c1.1,0,14.8-9.3,15.7,3.2c-2.9-6.2-15.6,2.6-21.4-4.4
	c0.9,4.5,19.8,14,23.6,8C221.7,167.9,202.8,146.1,199.7,150z"/>
<path class="st3" d="M270.6,171.5c5-0.5,8.6-2.9,10.7-7.3c-5.8,6.9-18.5-1.8-21.4,4.4c0.8-11.3,15-3.2,15.7-3.2
	c8,0.3,10.8-18.3-2.1-15.7c-3.4,0.7-17.6,19.5-15.6,22.6C259.5,175.4,269,173.2,270.6,171.5z"/>
<path class="st0" d="M239.1,361.3c6.8-1.2,4.6-69.1,2.1-72.7C238.3,284.4,226.9,363.7,239.1,361.3z"/>
<path class="st0" d="M247.1,360.9c-8.4-0.6-9.9-71.9-5.5-72.9C242.8,295.5,256.5,361.6,247.1,360.9z"/>
<path class="st0" d="M256.6,359.6c-9.1,0.1-16-66.6-13.7-71.6C241.1,291.9,267.6,359.7,256.6,359.6z"/>
<path class="st0" d="M266.1,356.9c-11,1.4-23.9-70.1-17.8-71C250.7,293.6,272.8,356,266.1,356.9z"/>
<path class="st0" d="M229.5,360.9c8.4-0.6,9.9-71.9,5.5-72.9C233.8,295.5,220.1,361.6,229.5,360.9z"/>
<path class="st0" d="M220,359.6c9.1,0.1,16-66.6,13.7-71.6C235.5,292,208.9,359.7,220,359.6z"/>
<path class="st0" d="M210.5,356.9c11,1.4,23.9-70.1,17.8-71C225.9,293.6,203.8,356,210.5,356.9z"/>
<path class="st0" d="M215.5,335c11.5,0.7,24.2-62.3,26.5-69.7C232.5,261.4,214.7,334.9,215.5,335z"/>
<path class="st0" d="M231.1,337.4c8.6-0.8,9.4-66.1,10-72.6C231.4,262.5,225.3,337.9,231.1,337.4z"/>
<path class="st0" d="M239,337.6c9.4-1.8,0.3-72.9-0.8-73C233,264.3,232.3,338.9,239,337.6z"/>
<path class="st0" d="M255.7,317.3c-9.2,0.7-20.5-70.3-16.8-70.7C240.4,252.6,259.1,316.7,255.7,317.3z"/>
<path class="st0" d="M220.9,317.3c9.2,0.7,20.5-70.3,16.8-70.7C236.2,252.6,217.5,316.7,220.9,317.3z"/>
<path class="st0" d="M226.8,318.8c8.1-0.2,13.8-72.1,10.6-72.1C236.2,253.2,221.9,318.2,226.8,318.8z"/>
<path class="st0" d="M232.8,319.7c8.5-1.1,6.9-73.3,4.1-73C236.3,252.9,226.1,319.6,232.8,319.7z"/>
<path class="st0" d="M199.4,226.6c0.2,9.5,4.1,39-5,46.4c-4.4-6.1-3.1-54.3,2.7-51C197.9,223.5,198.6,225.1,199.4,226.6z"/>
<path class="st0" d="M180.4,219.4c-0.6,22.1-6.7,49.2,5.6,69.4c13.5-5.8,6.1-32.8,6-43.8C191.9,228.7,200.3,218.6,180.4,219.4z"/>
<path class="st0" d="M172.9,226c0.4,22.1-4.1,49.5,9.2,69c12.5-9.7,3.6-58.7,2.8-70.4C180.9,225.1,176.9,225.5,172.9,226z"/>
<path class="st0" d="M167.4,235.6c3.5-0.1,7.1-0.2,10.6-0.3c-3.3,16.1,14.7,58.2-4.4,69.6C166.1,289,164.6,252.8,167.4,235.6z"/>
<path class="st0" d="M207.9,219.2c-0.1,9.7,3,38.9-6.4,46.2c-4.2-6.1-1.6-54.4,4.2-50.9C206.4,216.1,207.2,217.6,207.9,219.2z"/>
<path class="st0" d="M189.1,195.3c-0.4,13.1-5.1,31.3,3,43.2C204,229.2,197.4,202.8,189.1,195.3z"/>
<path class="st0" d="M196.6,201.4c-0.2,11.3-4.2,27.1,2.8,37.3C210.8,229.8,204.5,208.8,196.6,201.4z"/>
<path class="st0" d="M190.1,194.5c-2.4-3.5-4.8-6.9-7.2-10.4c-3.8,13.5-6,42.8,2.2,54.7C193.9,231.9,188.6,204.6,190.1,194.5z"/>
<path class="st0" d="M175.3,217.6c-1.5,7.4-0.7,14.5,2.3,21.4c9.1-7.1,9.7-51.1,0.7-57.7C176.3,193,172.3,205.7,175.3,217.6z"/>
<path class="st0" d="M168.1,228.1c1.1,6.1,3.1,11.8,6.2,17.1c9.1-7.1,3.2-54.6,6.4-66.5C165.2,189.2,165.6,211.8,168.1,228.1z"/>
<path class="st0" d="M168.7,235.4c-3.4-1.1-6.8-2.3-10.2-3.4c-3.2,24.7,8.8,49,2.8,73.6C185.6,302.4,168.4,249,168.7,235.4z"/>
<path class="st4" d="M163.7,239.1c-0.2,0-0.8,0.1-0.5-0.2C163.4,238.7,163.8,238.9,163.7,239.1z"/>
<path class="st0" d="M168.3,175.1c2.2,0.4,4.5,0.7,6.7,1.1c-4.9,21.5-11.1,47.9-0.8,68.9C151.2,242.5,164.2,185.8,168.3,175.1z"/>
<path class="st0" d="M164.2,176.7c9.5,10.8-2.9,49.3,3,65.1C149.3,239.8,154.8,184.4,164.2,176.7z"/>
<path class="st0" d="M182.6,186.6c-11.5-1.3-10.8,16.1-6.8,24.2C183.2,206.3,181.6,193.7,182.6,186.6z"/>
<path class="st0" d="M200.3,201.1c-9.6,0.2-7.9,14.4-3.6,20.9C202.6,217.1,200.4,207.4,200.3,201.1z"/>
<path class="st0" d="M206.8,203.9c-9.5,0.5-7.3,14.7-2.7,21C209.7,219.8,207.1,210.2,206.8,203.9z"/>
<path class="st0" d="M194.1,198c-9.5-0.6-9,13.7-5.2,20.5C195.1,214.1,193.8,204.3,194.1,198z"/>
<path class="st0" d="M188.5,191.5c-2.2-0.9-4.4-1.8-6.6-2.7c-1.8,7.5-3.1,18,0.1,25.4C188.8,209.5,187.9,198.4,188.5,191.5z"/>
<path class="st0" d="M205.3,282.5c-0.2-1.8-0.4-3.6-0.5-5.4c-4.1-6.1-16.8,16.4-18.3,17.7C196.5,296.7,199.1,287.7,205.3,282.5z"/>
<path class="st0" d="M209.4,283.2c-9.3-4-13.6,9.5-11.9,17.6C205,298.8,207,289.1,209.4,283.2z"/>
<path class="st0" d="M211.1,283.2c-9.7-1.5-11,12.3-7.2,19.9C210.7,299.4,210.2,289.5,211.1,283.2z"/>
<path class="st0" d="M212.1,274.5c13.4-3.4,1.2,21.2,0.9,26C204.5,292.6,211.5,283.9,212.1,274.5z"/>
<path class="st0" d="M213.8,271.8c-9.5-3.4-13.1,10.2-10.8,18.2C210.8,287.6,211.7,278.1,213.8,271.8z"/>
<path class="st0" d="M209.6,267.5c-0.4-2.8-0.9-5.5-1.3-8.3c-6.7-1.8-11.8,20.6-14.6,24.2C203.8,283.2,204.6,273.8,209.6,267.5z"/>
<path class="st5" d="M244.3,279.3"/>
<path class="st0" d="M277.1,226.6c-0.2,9.5-4.1,39,5,46.4c4.4-6,3.1-54.2-2.6-51C278.7,223.5,277.9,225.1,277.1,226.6z"/>
<path class="st0" d="M296.2,219.4c0.6,22.1,6.7,49.2-5.6,69.4c-13.5-5.8-6.1-32.8-6-43.8C284.7,228.7,276.4,218.6,296.2,219.4z"/>
<path class="st0" d="M303.7,226c-0.4,22.1,4.1,49.5-9.2,69c-12.5-9.7-3.6-58.7-2.8-70.4C295.7,225.1,299.7,225.5,303.7,226z"/>
<path class="st0" d="M309.2,235.6c-3.5-0.1-7.1-0.2-10.6-0.3c3.3,16.1-14.7,58.2,4.4,69.6C310.5,289,312,252.8,309.2,235.6z"/>
<path class="st0" d="M268.7,219.2c0.1,9.7-3,38.9,6.4,46.2c4.2-6.1,1.6-54.4-4.2-50.9C270.2,216.1,269.4,217.6,268.7,219.2z"/>
<path class="st0" d="M287.5,195.3c0.4,13.1,5.1,31.3-3,43.2C272.6,229.2,279.2,202.8,287.5,195.3z"/>
<path class="st0" d="M279.9,201.4c0.2,11.3,4.2,27.1-2.8,37.3C265.5,229.7,272.3,209,279.9,201.4z"/>
<path class="st0" d="M286.5,194.5c2.4-3.5,4.8-6.9,7.2-10.4c3.8,13.5,6,42.8-2.2,54.7C282.8,232,287.9,204.5,286.5,194.5z"/>
<path class="st0" d="M301.3,217.6c1.5,7.4,0.7,14.5-2.3,21.4c-9.1-7.1-9.7-51.1-0.7-57.7C300.2,193.1,304.3,205.6,301.3,217.6z"/>
<path class="st0" d="M308.5,228.1c-1.1,6.1-3.1,11.8-6.2,17.1c-9.1-7.1-3.2-54.6-6.4-66.5C311.4,189.2,310.9,211.8,308.5,228.1z"/>
<path class="st0" d="M307.9,235.4c3.4-1.1,6.8-2.3,10.2-3.4c3.2,24.7-8.8,49-2.8,73.6C291,302.4,308.2,249,307.9,235.4z"/>
<path class="st4" d="M312.8,239.1c0.2,0,0.8,0.1,0.5-0.2C313.1,238.7,312.8,238.9,312.8,239.1z"/>
<path class="st0" d="M308.3,175.1c-2.2,0.4-4.5,0.7-6.7,1.1c4.9,21.5,11.1,47.9,0.8,68.9C325.4,242.5,312.4,185.8,308.3,175.1z"/>
<path class="st0" d="M312.4,176.7c-9.5,10.8,2.9,49.3-3,65.1C327.3,239.8,321.8,184.4,312.4,176.7z"/>
<path class="st0" d="M294,186.6c11.5-1.3,10.8,16.1,6.8,24.2C293.4,206.3,294.9,193.7,294,186.6z"/>
<path class="st0" d="M276.3,201.1c9.6,0.2,7.9,14.4,3.6,20.9C274,217.2,276.1,207.4,276.3,201.1z"/>
<path class="st0" d="M269.8,203.9c9.5,0.5,7.3,14.7,2.7,21C266.8,219.8,269.4,210.2,269.8,203.9z"/>
<path class="st0" d="M282.4,198c9.5-0.6,9,13.7,5.2,20.5C281.4,214.1,282.8,204.3,282.4,198z"/>
<path class="st0" d="M288.1,191.5c2.2-0.9,4.4-1.8,6.6-2.7c1.8,7.5,3.1,18-0.1,25.4C287.8,209.5,288.7,198.4,288.1,191.5z"/>
<path class="st0" d="M271.2,282.5c0.2-1.8,0.4-3.6,0.5-5.4c4.1-6.1,16.8,16.4,18.3,17.7C280.1,296.7,277.4,287.6,271.2,282.5z"/>
<path class="st0" d="M267.2,283.2c9.3-4,13.6,9.5,11.9,17.6C271.6,298.8,269.6,289.1,267.2,283.2z"/>
<path class="st0" d="M265.4,283.2c9.7-1.5,11,12.3,7.2,19.9C265.9,299.4,266.4,289.4,265.4,283.2z"/>
<path class="st0" d="M264.5,274.5c-13.4-3.4-1.2,21.2-0.9,26C272,292.6,265,283.9,264.5,274.5z"/>
<path class="st0" d="M262.8,271.8c9.5-3.4,13.1,10.2,10.8,18.2C265.8,287.6,264.9,278.1,262.8,271.8z"/>
<path class="st0" d="M266.9,267.5c0.4-2.8,0.9-5.5,1.3-8.3c6.7-1.8,11.8,20.6,14.6,24.2C272.7,283.2,271.9,273.8,266.9,267.5z"/>
<path class="st0" d="M288.6,197.6c4.7-3.9,4.5-9.3,12.2-8.6c0.3,0,16.1,25.5,9.9,5.1c2.6,3.4,6,5.7,10.2,6.9
	c-0.6-4.1-11.7-63.9-29-52c-3.5,2.4,3,18.8,1.8,24c-1.7,7.3-18.3,32.4-27.9,26.2c-3.6,0.9-9.7-18.4-7.4-26.6
	c2.7-9.6,20.4-19.7,7.8-25.4c-22.7-10.4-26.8,27.6-27.8,38.2c-0.8-9.2-4.2-29.5-7.3-32.3c-2.6-2.4-22.4-8.2-25.1-5.4
	c-4.8,5.1,12.7,21.8,13.6,28.3c1.1,7.6-9.2,23.1-8.7,23.2c-5.6,7.7-17.8-10.5-20.1-13.7s-5.8-7.3-6.8-11.2
	c-1.2-4.6,1.4-14.8,0.8-16.7c-9-28-27.1,32.1-28.9,43.5c4.2-1.2,7.6-3.5,10.2-6.9c-5.8,19.1,9-3.5,9.1-3.5c7.9,0.4,4.9,0.3,12.1,5.8
	c5.9,4.5,8.6,15.2,16.3,17.8c1.5,0.5,27.9-3.9,34.8-3.9c7.8,0,33.2,4.4,34.9,3.8"/>
<path class="st4" d="M195.1,164.3 M217.4,170c-0.3-0.4-3-3.2-2.7-3.9C216,166,217.2,168.9,217.4,170z"/>
<path class="st4" d="M206.6,151.7C206.7,153.6,205.9,151.7,206.6,151.7z M214.3,153.7c-0.3,0.7-7.7-0.8-7.7-2
	C209.2,151.6,211.9,152.8,214.3,153.7z M218.8,155c0.2,1.6-5.1,0.5-4.5-1.3C215.6,154.2,217.5,154.5,218.8,155z M218.9,155.8
	C218.6,153.9,219.6,155.7,218.9,155.8z"/>
<path class="st4" d="M212.6,157.2c-1.2,2.1-4.1-3.7-4.6-4.7C209,151.9,211.2,156.1,212.6,157.2z M216.5,154.5
	c3.2,1.7-4.4,3.9-4.2,3.3C213,156.4,215.5,156.7,216.5,154.5z"/>
<path class="st4" d="M211.7,156.7c-1.6-2.2-1.7-4.5,2-2.9C213.3,155.2,212.8,155.9,211.7,156.7z"/>
<path class="st4" d="M200.1,149.7C198.8,150.2,200,149.4,200.1,149.7z"/>
<path class="st4" d="M198.9,153.3c0.9,0.6,0.8,1-0.2,1.4C197.8,154.1,197.9,153.6,198.9,153.3z"/>
<path class="st4" d="M270,151.7C269.9,153.6,270.7,151.7,270,151.7z M262.3,153.7c0.3,0.7,7.7-0.8,7.7-2
	C267.4,151.6,264.7,152.8,262.3,153.7z M257.8,155c-0.2,1.6,5.1,0.5,4.5-1.3C260.9,154.2,259,154.5,257.8,155z M257.7,155.8
	C258,153.9,257,155.7,257.7,155.8z"/>
<path class="st4" d="M263.9,157.2c1.2,2.1,4.1-3.7,4.6-4.7C267.5,151.9,265.3,156.1,263.9,157.2z M260.1,154.5
	c-3.2,1.7,4.4,3.9,4.2,3.3C263.5,156.4,261.1,156.7,260.1,154.5z"/>
<path class="st4" d="M264.9,156.7c1.6-2.2,1.7-4.5-2-2.9C263.3,155.2,263.8,155.9,264.9,156.7z"/>
<path class="st4" d="M229.9,200.1C230.1,200.3,231.1,199.3,229.9,200.1L229.9,200.1z"/>
<path class="st2" d="M272.3,202.8c0,24.8,8.9,68-15.1,84.6c-19.4,13.5-42.5,2.4-50.5-18c-4.4-11.3-6.5-44.2-2.3-56.5
	c1.2-12.2-2.7-9.5,10.4-9.6C231.4,202.9,255.5,202.9,272.3,202.8z"/>
<path id="path1563_7_" class="st5" d="M249.9,230.8c0-16.3-2.5-17.3,11.5-21c14.1-3.7-8,17.5-3.2,6.8c1.4-2.3,2.5-2.4,3.3-0.2
	c-1.9,1-5.9-8.3-5.9,4.5c0,11.8,5.5,4.1,6,4.4c-1.1,2.2-2.2,2-3.5-0.6c-2-6.5,13.6,1.6,6.8,4.5C258.7,231.9,257.8,233.2,249.9,230.8
	z"/>
<path class="st0" d="M272.3,236.6c0,26.6-7.3,4.7-23.2,14c-12.7,7.4,3.6,27.4-3.7,38.3c-10.2,15.3-14.2-3.3-14.2-15
	c0-7.4,3-18.4-2.6-23.3c-4.8-4.2-15.8,3.3-20.5,0c-14.2-9.9,2.7-11.6,9-13.8c11.1-3.9,8.5,2.6,14.2-6.9c2.9-4.8-4.7-23.1,0.6-26.6
	c14.6-9.6,11.9,8,13,14.5C248.5,241.3,246,236.6,272.3,236.6z"/>
<path id="path1563_6_" class="st5" d="M226.6,230.8c0-16.3,2.5-17.3-11.5-21c-14.1-3.7,8,17.5,3.2,6.8c-1.4-2.3-2.5-2.4-3.3-0.2
	c1.9,1,5.9-8.3,5.9,4.5c0,11.8-5.5,4.1-6,4.4c1.1,2.2,2.2,2,3.5-0.6c2-6.5-13.6,1.6-6.8,4.5C217.8,231.9,218.7,233.2,226.6,230.8z"
	/>
<path id="path1563_5_" class="st5" d="M226.6,276.4c0-16.3,2.5-17.3-11.5-21c-14.1-3.7,8,17.5,3.2,6.8c-1.4-2.3-2.5-2.4-3.3-0.2
	c1.9,1,5.9-8.3,5.9,4.5c0,11.8-5.5,4.1-6,4.4c1.1,2.2,2.2,2,3.5-0.6c2-6.5-13.6,1.6-6.8,4.5C217.8,277.5,218.7,278.9,226.6,276.4z"
	/>
<path id="path1563_4_" class="st5" d="M249.9,276.4c0-16.3-2.5-17.3,11.5-21c14.1-3.7-8,17.5-3.2,6.8c1.4-2.3,2.5-2.4,3.3-0.2
	c-1.9,1-5.9-8.3-5.9,4.5c0,11.8,5.5,4.1,6,4.4c-1.1,2.2-2.2,2-3.5-0.6c-2-6.5,13.6,1.6,6.8,4.5C258.7,277.5,257.9,278.8,249.9,276.4
	z"/>
<path class="st4" d="M203.8,202.2c0,24.9-9.3,63.7,11.9,82.9c16,14.5,40,10.8,51-7.1c9.4-15.3,7.5-37.1,7-54.3
	c-0.4-13.2-1-19.8-1.4-21.5C259.7,202.1,218.1,202.2,203.8,202.2z M204.9,203.4c16.9,0,37.1-0.6,53.4,0c15.6,2.7,13.5,1.1,14,17.4
	c0.5,17.6,3.1,40.3-6.4,56.2c-9.9,16.5-30.5,20.9-46.5,9.3C195.4,268.8,204.9,228.5,204.9,203.4z"/>
</svg>
