<svg xmlns="http://www.w3.org/2000/svg" xmlns:xlink="http://www.w3.org/1999/xlink" viewBox="0 0 640 440" enable-background="new 0 0 640 440"><defs><path id="1" d="m0 0h640v440h-640z"/><clipPath id="0"><use xlink:href="#1"/></clipPath></defs><path d="M-20,0h720v480H-20V0z" fill="#fff" clip-path="url(#0)"/><path d="M-20,0h720v240H-20V0z" fill="#df0000" clip-path="url(#0)"/><g fill="#fff"><path d="m146.1 40.2c-33.2 7.6-57.9 32.2-64.9 65.7-9.5 45.5 20.1 90 65.7 99.5-46 13.1-93.6-13.3-106.6-58.9-13-45.6 13.5-93.2 59.1-106.2 15.9-4.5 30.6-4.6 46.7-.1" clip-path="url(#0)"/><path d="m133 110l4.9 15.1-12.9-9.2-12.9 9.3 4.8-15.1-12.8-9.4 15.9-.1 4.9-15.1 5 15.1h15.9l-12.8 9.4m17.5 52l4.9 15.1-12.9-9.2-12.9 9.3 4.8-15.1-12.8-9.4 15.9-.1 4.9-15.1 5 15.1h15.9l-12.8 9.4m58.5-.4l4.9 15.1-12.9-9.2-12.9 9.3 4.8-15.1-12.8-9.4 15.9-.1 4.9-15.1 5 15.1h15.9l-12.8 9.4m17.4-51.6l4.9 15.1-12.9-9.2-12.9 9.3 4.8-15.1-12.8-9.4 15.9-.1 4.9-15.1 5 15.1h15.9l-12.8 9.4m-46.3-34.3l4.9 15.1-12.9-9.2-12.9 9.3 4.8-15.1-12.8-9.4 15.9-.1 4.9-15.1 5 15.1h15.9l-12.8 9.4" clip-path="url(#0)"/></g></svg>