<svg xmlns="http://www.w3.org/2000/svg" xmlns:xlink="http://www.w3.org/1999/xlink" viewBox="0 0 640 440" enable-background="new 0 0 640 440"><defs><path id="1" d="m0 0h640v440h-640z"/><clipPath id="0"><use xlink:href="#1"/></clipPath></defs><path d="M0-20h720v480H0V-20z" fill="#de2110" clip-path="url(#0)"/><path d="M0-20h361.6v240H0V-20z" fill="#08399c" clip-path="url(#0)"/><path d="m264.5 159.4l-44.4-9.1 9.5 44.3-33.9-30.1-14 43.1-14.3-43-33.6 30.3 9.1-44.4-44.3 9.5 30.1-33.9-43.1-14 43-14.3-30.4-33.6 44.4 9.1-9.4-44.3 33.8 30.1 14-43.1 14.3 43 33.6-30.3-9.1 44.4 44.3-9.5-30.1 33.9 43.1 14-43 14.3 30.4 33.6" fill="#fff" clip-path="url(#0)"/><path d="m223.6 156l-14 7.4-13.7 8.1-15.9-.5-15.9.2-13.5-8.4-13.8-7.8-7.5-14-8.1-13.6.5-15.8-.2-15.8 8.4-13.4 7.8-13.8 14-7.4 13.7-8.1 15.9.5 15.9-.2 13.5 8.4 13.8 7.8 7.5 14 8.1 13.6-.5 15.8.2 15.8-8.4 13.4-7.8 13.8" fill="#005387" clip-path="url(#0)"/><path d="m229.3 112.3c0 26.9-21.8 48.6-48.6 48.6s-48.6-21.8-48.6-48.6 21.8-48.6 48.6-48.6 48.6 21.7 48.6 48.6" fill="#fff" clip-path="url(#0)"/></svg>